<mxfile host="app.diagrams.net" agent="Mozilla/5.0 (Macintosh; Intel Mac OS X 10.15; rv:134.0) Gecko/20100101 Firefox/134.0" version="26.0.6">
  <diagram name="Pagina-1" id="N3M6sVkdgxn1kljQNY90">
    <mxGraphModel dx="587" dy="779" grid="1" gridSize="10" guides="1" tooltips="1" connect="1" arrows="1" fold="1" page="1" pageScale="1" pageWidth="827" pageHeight="1169" math="0" shadow="0">
      <root>
        <mxCell id="0" />
        <mxCell id="1" parent="0" />
        <mxCell id="3djrC-OBUUIsbpWyjLsT-1" value="&lt;div&gt;User&lt;/div&gt;&lt;div&gt;&lt;br&gt;&lt;/div&gt;" style="shape=umlActor;verticalLabelPosition=bottom;verticalAlign=top;html=1;outlineConnect=0;" vertex="1" parent="1">
          <mxGeometry x="30" y="230" width="30" height="60" as="geometry" />
        </mxCell>
        <mxCell id="3djrC-OBUUIsbpWyjLsT-4" value="Contorl Unit" style="shape=umlActor;verticalLabelPosition=bottom;verticalAlign=top;html=1;outlineConnect=0;" vertex="1" parent="1">
          <mxGeometry x="570" y="270" width="30" height="60" as="geometry" />
        </mxCell>
        <mxCell id="3djrC-OBUUIsbpWyjLsT-6" value="Visualise the state&lt;br&gt;&lt;div&gt;of the system&lt;/div&gt;" style="ellipse;whiteSpace=wrap;html=1;" vertex="1" parent="1">
          <mxGeometry x="220" y="140" width="140" height="70" as="geometry" />
        </mxCell>
        <mxCell id="3djrC-OBUUIsbpWyjLsT-8" value="Control the opening&lt;br&gt;of the window" style="ellipse;whiteSpace=wrap;html=1;" vertex="1" parent="1">
          <mxGeometry x="220" y="350" width="140" height="70" as="geometry" />
        </mxCell>
        <mxCell id="3djrC-OBUUIsbpWyjLsT-9" value="" style="edgeStyle=none;html=1;endArrow=none;verticalAlign=bottom;rounded=0;exitX=1;exitY=0.3333333333333333;exitDx=0;exitDy=0;exitPerimeter=0;" edge="1" parent="1" source="3djrC-OBUUIsbpWyjLsT-1" target="3djrC-OBUUIsbpWyjLsT-6">
          <mxGeometry width="160" relative="1" as="geometry">
            <mxPoint x="60" y="260" as="sourcePoint" />
            <mxPoint x="220" y="260" as="targetPoint" />
          </mxGeometry>
        </mxCell>
        <mxCell id="3djrC-OBUUIsbpWyjLsT-10" value="" style="edgeStyle=none;html=1;endArrow=none;verticalAlign=bottom;rounded=0;" edge="1" parent="1" source="3djrC-OBUUIsbpWyjLsT-1" target="3djrC-OBUUIsbpWyjLsT-8">
          <mxGeometry width="160" relative="1" as="geometry">
            <mxPoint x="55" y="270" as="sourcePoint" />
            <mxPoint x="223" y="245" as="targetPoint" />
          </mxGeometry>
        </mxCell>
        <mxCell id="3djrC-OBUUIsbpWyjLsT-11" value="Manage the alarm" style="ellipse;whiteSpace=wrap;html=1;" vertex="1" parent="1">
          <mxGeometry x="220" y="240" width="140" height="70" as="geometry" />
        </mxCell>
        <mxCell id="3djrC-OBUUIsbpWyjLsT-12" value="" style="edgeStyle=none;html=1;endArrow=none;verticalAlign=bottom;rounded=0;" edge="1" parent="1" source="3djrC-OBUUIsbpWyjLsT-1" target="3djrC-OBUUIsbpWyjLsT-11">
          <mxGeometry width="160" relative="1" as="geometry">
            <mxPoint x="65" y="280" as="sourcePoint" />
            <mxPoint x="233" y="255" as="targetPoint" />
          </mxGeometry>
        </mxCell>
        <mxCell id="3djrC-OBUUIsbpWyjLsT-20" value="" style="edgeStyle=none;html=1;endArrow=none;verticalAlign=bottom;rounded=0;exitX=1;exitY=0.5;exitDx=0;exitDy=0;" edge="1" parent="1" source="3djrC-OBUUIsbpWyjLsT-11" target="3djrC-OBUUIsbpWyjLsT-4">
          <mxGeometry width="160" relative="1" as="geometry">
            <mxPoint x="230" y="390" as="sourcePoint" />
            <mxPoint x="390" y="390" as="targetPoint" />
          </mxGeometry>
        </mxCell>
        <mxCell id="3djrC-OBUUIsbpWyjLsT-21" value="" style="edgeStyle=none;html=1;endArrow=none;verticalAlign=bottom;rounded=0;exitX=1;exitY=0.5;exitDx=0;exitDy=0;" edge="1" parent="1" source="3djrC-OBUUIsbpWyjLsT-8" target="3djrC-OBUUIsbpWyjLsT-4">
          <mxGeometry width="160" relative="1" as="geometry">
            <mxPoint x="230" y="390" as="sourcePoint" />
            <mxPoint x="390" y="390" as="targetPoint" />
          </mxGeometry>
        </mxCell>
        <mxCell id="3djrC-OBUUIsbpWyjLsT-22" value="" style="edgeStyle=none;html=1;endArrow=none;verticalAlign=bottom;rounded=0;exitX=1;exitY=0.614;exitDx=0;exitDy=0;exitPerimeter=0;strokeColor=default;" edge="1" parent="1" source="3djrC-OBUUIsbpWyjLsT-6" target="3djrC-OBUUIsbpWyjLsT-4">
          <mxGeometry width="160" relative="1" as="geometry">
            <mxPoint x="230" y="390" as="sourcePoint" />
            <mxPoint x="390" y="390" as="targetPoint" />
          </mxGeometry>
        </mxCell>
        <mxCell id="3djrC-OBUUIsbpWyjLsT-23" value="&amp;lt;&amp;lt;include&amp;gt;&amp;gt;" style="edgeStyle=none;html=1;endArrow=open;verticalAlign=bottom;dashed=1;labelBackgroundColor=none;rounded=0;exitX=0.571;exitY=1.043;exitDx=0;exitDy=0;exitPerimeter=0;entryX=0.5;entryY=0;entryDx=0;entryDy=0;" edge="1" parent="1" source="3djrC-OBUUIsbpWyjLsT-8" target="3djrC-OBUUIsbpWyjLsT-24">
          <mxGeometry width="160" relative="1" as="geometry">
            <mxPoint x="280" y="460" as="sourcePoint" />
            <mxPoint x="300" y="500" as="targetPoint" />
          </mxGeometry>
        </mxCell>
        <mxCell id="3djrC-OBUUIsbpWyjLsT-24" value="Open / close window" style="ellipse;whiteSpace=wrap;html=1;" vertex="1" parent="1">
          <mxGeometry x="250" y="470" width="140" height="70" as="geometry" />
        </mxCell>
        <mxCell id="3djrC-OBUUIsbpWyjLsT-26" value="&lt;div&gt;Arduino&lt;/div&gt;" style="shape=umlActor;verticalLabelPosition=bottom;verticalAlign=top;html=1;outlineConnect=0;" vertex="1" parent="1">
          <mxGeometry x="50" y="470" width="30" height="60" as="geometry" />
        </mxCell>
        <mxCell id="3djrC-OBUUIsbpWyjLsT-27" value="ESP32" style="shape=umlActor;verticalLabelPosition=bottom;verticalAlign=top;html=1;outlineConnect=0;" vertex="1" parent="1">
          <mxGeometry x="50" y="35" width="30" height="60" as="geometry" />
        </mxCell>
        <mxCell id="3djrC-OBUUIsbpWyjLsT-30" value="" style="edgeStyle=none;html=1;endArrow=none;verticalAlign=bottom;rounded=0;entryX=0;entryY=0.5;entryDx=0;entryDy=0;endFill=0;startArrow=classic;startFill=1;" edge="1" parent="1" source="3djrC-OBUUIsbpWyjLsT-26" target="3djrC-OBUUIsbpWyjLsT-24">
          <mxGeometry width="160" relative="1" as="geometry">
            <mxPoint x="250" y="420" as="sourcePoint" />
            <mxPoint x="410" y="420" as="targetPoint" />
          </mxGeometry>
        </mxCell>
        <mxCell id="3djrC-OBUUIsbpWyjLsT-32" value="Monitor temperature" style="ellipse;whiteSpace=wrap;html=1;" vertex="1" parent="1">
          <mxGeometry x="220" y="40" width="140" height="70" as="geometry" />
        </mxCell>
        <mxCell id="3djrC-OBUUIsbpWyjLsT-33" value="" style="edgeStyle=none;html=1;endArrow=classic;verticalAlign=bottom;rounded=0;endFill=1;exitX=0;exitY=0.5;exitDx=0;exitDy=0;" edge="1" parent="1" source="3djrC-OBUUIsbpWyjLsT-32" target="3djrC-OBUUIsbpWyjLsT-27">
          <mxGeometry width="160" relative="1" as="geometry">
            <mxPoint x="400" y="55" as="sourcePoint" />
            <mxPoint x="560" y="54.5" as="targetPoint" />
          </mxGeometry>
        </mxCell>
        <mxCell id="3djrC-OBUUIsbpWyjLsT-35" value="" style="edgeStyle=none;html=1;endArrow=none;verticalAlign=bottom;rounded=0;exitX=0.993;exitY=0.614;exitDx=0;exitDy=0;exitPerimeter=0;" edge="1" parent="1" source="3djrC-OBUUIsbpWyjLsT-32" target="3djrC-OBUUIsbpWyjLsT-4">
          <mxGeometry width="160" relative="1" as="geometry">
            <mxPoint x="350" y="130" as="sourcePoint" />
            <mxPoint x="580" y="260" as="targetPoint" />
          </mxGeometry>
        </mxCell>
      </root>
    </mxGraphModel>
  </diagram>
</mxfile>
